<?xml version="1.0" encoding="UTF-8" standalone="no" ?>
<!DOCTYPE svg PUBLIC "-//W3C//DTD SVG 1.1//EN" "http://www.w3.org/Graphics/SVG/1.1/DTD/svg11.dtd">
<svg xmlns="http://www.w3.org/2000/svg" xmlns:xlink="http://www.w3.org/1999/xlink" version="1.1" width="1080" height="1080" viewBox="0 0 1080 1080" xml:space="preserve">
<desc>Created with Fabric.js 5.2.4</desc>
<defs>
</defs>
<g transform="matrix(1 0 0 1 540 540)" id="6006d654-2f6b-4843-8e74-2ed95706e136"  >
<rect style="stroke: none; stroke-width: 1; stroke-dasharray: none; stroke-linecap: butt; stroke-dashoffset: 0; stroke-linejoin: miter; stroke-miterlimit: 4; fill: rgb(255,255,255); fill-rule: nonzero; opacity: 1; visibility: hidden;" vector-effect="non-scaling-stroke"  x="-540" y="-540" rx="0" ry="0" width="1080" height="1080" />
</g>
<g transform="matrix(1 0 0 1 540 540)" id="442ca708-b2b6-4145-b8d7-88936161b733"  >
</g>
<g transform="matrix(30.66 0 0 30.66 166.72 915.46)" clip-path="url(#CLIPPATH_6)"  >
<clipPath id="CLIPPATH_6" >
	<path transform="matrix(1 0 0 1 12.08 -12.08) translate(-20, -20)" d="M 0 0 L 40 0 L 40 40 L 0 40 z" stroke-linecap="round" />
</clipPath>
<path style="stroke: none; stroke-width: 1; stroke-dasharray: none; stroke-linecap: butt; stroke-dashoffset: 0; stroke-linejoin: miter; stroke-miterlimit: 4; fill: rgb(251,188,4); fill-rule: nonzero; opacity: 1;" vector-effect="non-scaling-stroke"  transform=" translate(-7.92, -32.08)" d="M 11.081 30.527 L 6.361 35.248000000000005 C 5.9969241469288495 35.610721383443355 5.408075853071151 35.610721383443355 5.0440000000000005 35.248000000000005 L 4.752 34.956 C 4.389942300959773 34.59204027336048 4.389942300959773 34.00395972663952 4.752 33.64 L 9.472 28.919 C 9.836191392214499 28.555613927262616 10.4258086077855 28.555613927262616 10.79 28.919 L 11.081 29.21 C 11.255954352071997 29.384480741203024 11.35428259502279 29.621411849009935 11.35428259502279 29.8685 C 11.35428259502279 30.115588150990067 11.255954352071997 30.352519258796978 11.081 30.527 z" stroke-linecap="round" />
</g>
<g transform="matrix(30.66 0 0 30.66 837.43 493.85)" clip-path="url(#CLIPPATH_7)"  >
<clipPath id="CLIPPATH_7" >
	<path transform="matrix(1 0 0 1 -9.79 1.67) translate(-20, -20)" d="M 0 0 L 40 0 L 40 40 L 0 40 z" stroke-linecap="round" />
</clipPath>
<path style="stroke: none; stroke-width: 1; stroke-dasharray: none; stroke-linecap: butt; stroke-dashoffset: 0; stroke-linejoin: miter; stroke-miterlimit: 4; fill: rgb(66,133,244); fill-rule: nonzero; opacity: 1;" vector-effect="non-scaling-stroke"  transform=" translate(-29.79, -18.33)" d="M 23.75 32.5 L 29.792 32.5 C 31.394427437876175 32.500265390415386 32.93128519649119 31.863752655639882 34.064278740501635 30.730571560968283 C 35.19727228451208 29.597390466296687 35.83353062709584 28.060427371997044 35.833 26.458 L 35.833 10.207999999999998 C 35.833265295829655 8.605745869743659 35.196889817380786 7.06903973505696 34.06392504116191 5.936074958838085 C 32.93096026494303 4.80311018261921 31.394254130256336 4.166734704170342 29.791999999999998 4.166999999999998 C 28.189572628002953 4.166469372904162 26.65260953370331 4.802727715487919 25.519428439031714 5.935721259498366 C 24.386247344360115 7.068714803508813 23.74973460958461 8.605572562123829 23.75 10.208000000000002 L 23.75 32.5 z" stroke-linecap="round" />
</g>
<g transform="matrix(30.66 0 0 30.66 345.32 742.98)" clip-path="url(#CLIPPATH_8)"  >
<clipPath id="CLIPPATH_8" >
	<path transform="matrix(1 0 0 1 6.25 -6.46) translate(-20, -20)" d="M 0 0 L 40 0 L 40 40 L 0 40 z" stroke-linecap="round" />
</clipPath>
<path style="stroke: none; stroke-width: 1; stroke-dasharray: none; stroke-linecap: butt; stroke-dashoffset: 0; stroke-linejoin: miter; stroke-miterlimit: 4; fill: rgb(251,188,4); fill-rule: nonzero; opacity: 1;" vector-effect="non-scaling-stroke"  transform=" translate(-13.75, -26.46)" d="M 13.75 32.5 C 15.352600681040784 32.5005307503934 16.889715418358566 31.864135160845983 18.022925289602274 30.730925289602276 C 19.15613516084598 29.59771541835857 19.792530750393407 28.060600681040782 19.792 26.458 C 19.792265390415388 24.855572562123825 19.155752655639883 23.31871480350881 18.022571560968288 22.185721259498365 C 16.889390466296692 21.05272771548792 15.352427371997045 20.41646937290416 13.750000000000002 20.416999999999998 C 12.147572628002958 20.41646937290416 10.61060953370331 21.05272771548792 9.477428439031714 22.185721259498365 C 8.344247344360118 23.31871480350881 7.707734609584613 24.85557256212383 7.708000000000002 26.458000000000002 C 7.707469249606597 28.060600681040782 8.34386483915402 29.59771541835857 9.477074710397728 30.730925289602276 C 10.610284581641436 31.864135160845983 12.14739931895922 32.50053075039341 13.750000000000004 32.5 z" stroke-linecap="round" />
</g>
<g transform="matrix(30.66 0 0 30.66 601.03 621.82)" clip-path="url(#CLIPPATH_9)"  >
<clipPath id="CLIPPATH_9" >
	<path transform="matrix(1 0 0 1 -2.08 -2.5) translate(-20, -20)" d="M 0 0 L 40 0 L 40 40 L 0 40 z" stroke-linecap="round" />
</clipPath>
<path style="stroke: none; stroke-width: 1; stroke-dasharray: none; stroke-linecap: butt; stroke-dashoffset: 0; stroke-linejoin: miter; stroke-miterlimit: 4; fill: rgb(52,168,83); fill-rule: nonzero; opacity: 1;" vector-effect="non-scaling-stroke"  transform=" translate(-22.08, -22.5)" d="M 27.97 32.5 L 22.083 32.5 C 20.480572562123825 32.500265390415386 18.94371480350881 31.863752655639882 17.810721259498365 30.730571560968286 C 16.67772771548792 29.59739046629669 16.04146937290416 28.060427371997044 16.041999999999998 26.458000000000002 L 16.041999999999998 18.541999999999998 C 16.04146937290416 16.939572628002953 16.677727715487915 15.402609533703309 17.81072125949836 14.269428439031712 C 18.943714803508808 13.136247344360115 20.480572562123825 12.49973460958461 22.083 12.499999999999998 C 23.685600681040782 12.499469249606593 25.222715418358565 13.135864839154015 26.355925289602272 14.269074710397724 C 27.489135160845983 15.402284581641432 28.125530750393406 16.939399318959214 28.125 18.541999999999998 L 28.125 32.346 C 28.125 32.38684333943529 28.108775046583727 32.42601384202173 28.07989444430273 32.454894444302724 C 28.05101384202173 32.48377504658372 28.01184333943529 32.5 27.971 32.5 z" stroke-linecap="round" />
</g>
<g transform="matrix(30.66 0 0 30.66 719.26 625.27)" clip-path="url(#CLIPPATH_10)"  >
<clipPath id="CLIPPATH_10" >
	<path transform="matrix(1 0 0 1 -5.94 -2.62) translate(-20, -20)" d="M 0 0 L 40 0 L 40 40 L 0 40 z" stroke-linecap="round" />
</clipPath>
<path style="stroke: none; stroke-width: 1; stroke-dasharray: none; stroke-linecap: butt; stroke-dashoffset: 0; stroke-linejoin: miter; stroke-miterlimit: 4; fill: rgb(25,103,210); fill-rule: nonzero; opacity: 1;" vector-effect="non-scaling-stroke"  transform=" translate(-25.94, -22.62)" d="M 28.125 32.346 L 28.125 18.542 C 28.124783959537528 15.847296244621267 26.340110902722355 13.478474200981108 23.749999999999996 12.735 L 23.75 32.5 L 27.97 32.5 C 28.01101632765444 32.50026634541445 28.050444221633143 32.48415904915834 28.079541466740565 32.4552495282129 C 28.108638711847988 32.42634000726746 28.125000864766985 32.38701719241231 28.125 32.346 z" stroke-linecap="round" />
</g>
<g transform="matrix(30.66 0 0 30.66 473.28 727.96)" clip-path="url(#CLIPPATH_11)"  >
<clipPath id="CLIPPATH_11" >
	<path transform="matrix(1 0 0 1 2.08 -5.97) translate(-20, -20)" d="M 0 0 L 40 0 L 40 40 L 0 40 z" stroke-linecap="round" />
</clipPath>
<path style="stroke: none; stroke-width: 1; stroke-dasharray: none; stroke-linecap: butt; stroke-dashoffset: 0; stroke-linejoin: miter; stroke-miterlimit: 4; fill: rgb(234,67,53); fill-rule: nonzero; opacity: 1;" vector-effect="non-scaling-stroke"  transform=" translate(-17.92, -25.97)" d="M 19.792 26.575 C 19.792384877250704 24.12327223801098 18.310681076125 21.9145457717996 16.042 20.985 L 16.042 26.575 C 16.042 28.294999999999998 16.762 29.848 17.917 30.948 C 19.115574532053024 29.80936951266678 19.793530123926434 28.22819628426015 19.792 26.574999999999996 z" stroke-linecap="round" />
</g>
</svg>