<svg version="1.1" id="Layer_1" xmlns="http://www.w3.org/2000/svg" xmlns:xlink="http://www.w3.org/1999/xlink" x="0px"
     y="0px"
     width="157.5px" height="159px" viewBox="0 200 157.5 159" enable-background="new 0 200 157.5 159"
     xml:space="preserve">
    <style>
        .g1 {fill: #4481FE;}
        .g2 {fill: #ffffff;}
  </style>
    <g transform="translate(35.000000, 40.000000)">
        <path class="g2" d="M-17.5,313.902l-14.5-15.5c-2-2.5-3-5-3-8v-32.5c0-3,3.5-4,5.5-2l15.5,17c1,1,2,3,2,4.5v34
            C-12,314.402-15.5,315.902-17.5,313.902"/>
        <path class="g1" d="M41,237.402l-70.5-77c-2-2-5.5-0.5-5.5,2v21c0,3,1,6,3,8l72.5,79c1,1.5,3.5,1.5,4.5,0l74-79
                c2-2,3-5,3-8v-20.5c0-3-3.5-4-5.5-2l-71,76.5C44,238.402,42,238.402,41,237.402"/>
        <g transform="translate(0.000000, 9.500000)">
            <path class="g2" d="M41,275.402l-70.5-76.5c-2-2.5-5.5-1-5.5,2v22c0,2.5,1,4.5,2.5,6l73.5,80c1,1.5,3.5,1.5,4.5,0
                l51.5-55c1-1,2.5-0.5,2.5,1v48.5c0,3,3.5,4,5.5,2l14.5-15.5c2-2,3-4.5,3-7.5v-81c0-3-3.5-4-5.5-2l-71.5,76
                C44,276.902,42,276.902,41,275.402"/>
        </g>
    </g>
</svg>
