<?xml version="1.0" standalone="no"?>
<!DOCTYPE svg PUBLIC "-//W3C//DTD SVG 20010904//EN"
 "http://www.w3.org/TR/2001/REC-SVG-20010904/DTD/svg10.dtd">
<svg version="1.0" xmlns="http://www.w3.org/2000/svg"
 width="700.000000pt" height="700.000000pt" viewBox="0 0 700.000000 700.000000"
 preserveAspectRatio="xMidYMid meet">
<metadata>
Created by potrace 1.14, written by Peter Selinger 2001-2017
</metadata>
<g transform="translate(0.000000,700.000000) scale(0.100000,-0.100000)"
fill="#000000" stroke="none">
<path d="M4909 5385 c-2 -2 -49 -6 -104 -9 -56 -4 -112 -8 -125 -11 -14 -2
-52 -6 -85 -10 -33 -3 -89 -11 -125 -16 -36 -6 -81 -12 -100 -15 -63 -10 -135
-49 -158 -86 -31 -50 -38 -117 -37 -378 l0 -235 35 1 c34 1 340 13 465 19 737
32 958 24 1086 -41 96 -48 132 -129 131 -298 0 -220 -60 -323 -222 -384 -31
-11 -71 -22 -90 -25 -38 -6 -129 -18 -163 -22 -12 -1 -158 -3 -324 -4 l-303
-1 0 -340 0 -340 168 -1 c691 -4 851 -41 928 -216 42 -93 68 -264 53 -334 -9
-40 -56 -149 -68 -159 -4 -3 -26 -36 -51 -74 -57 -89 -63 -94 -102 -91 -18 2
-114 6 -213 10 -99 4 -218 8 -265 10 -47 2 -161 6 -255 10 -93 3 -210 8 -260
10 -99 5 -434 17 -505 19 l-45 1 0 -215 c0 -332 11 -406 67 -442 33 -21 115
-46 173 -52 28 -3 70 -8 95 -10 44 -5 205 -14 365 -21 101 -5 836 -5 930 -1
335 17 492 64 705 214 246 174 358 431 358 822 0 335 -96 551 -310 697 -40 27
-93 58 -118 68 -102 44 -205 101 -205 114 0 14 27 25 85 37 75 15 191 86 284
173 108 103 176 205 196 298 11 47 14 265 5 393 -2 36 -7 110 -10 165 -14 249
-37 317 -147 423 -97 95 -236 179 -394 240 -126 48 -240 73 -404 88 -30 3 -73
7 -95 10 -45 6 -841 15 -846 9z"/>
<path d="M184 3475 c0 -1028 3 -1872 7 -1875 4 -3 197 -5 430 -4 l423 0 2 910
c2 838 4 994 19 1234 9 141 22 223 34 215 27 -16 272 -710 587 -1665 125 -377
230 -687 235 -690 10 -7 435 -4 496 4 71 9 88 13 121 30 44 23 71 62 66 94
-15 91 -88 384 -125 497 -5 17 -47 154 -93 305 -107 351 -143 462 -275 860
-206 622 -646 1945 -648 1949 -1 2 -289 4 -640 5 l-638 1 -1 -1870z"/>
<path d="M2820 5342 l-46 -3 -195 -582 -196 -582 162 -480 c189 -564 203 -599
223 -582 43 35 125 243 299 754 26 78 49 141 50 139 2 -1 6 -542 9 -1202 3
-659 8 -1201 10 -1203 8 -9 906 -6 911 2 4 6 7 3260 4 3672 l-1 70 -592 0
c-326 0 -613 -1 -638 -3z"/>
</g>
</svg>
