<svg xmlns="http://www.w3.org/2000/svg" xmlns:xlink="http://www.w3.org/1999/xlink" xmlns:xodm="http://www.corel.com/coreldraw/odm/2003" xml:space="preserve" width="622px" height="682px" fill-rule="evenodd" clip-rule="evenodd" viewBox="0 0 41.19 45.11"> <g id="Vrstva_x0020_1">  <metadata id="CorelCorpID_0Corel-Layer"></metadata>  <path fill="#004D26" fill-rule="nonzero" d="M2.62 5.37l11.05 0 0 -5.02c0,-0.15 -0.12,-0.35 -0.39,-0.35l-10.66 0c-0.27,0 -0.43,0.2 -0.43,0.35l0 4.66c0,0.16 0.16,0.36 0.43,0.36zm5.09 5.36l0 11.36c0,0 0,3.44 -3.4,3.44l-3.88 0c-0.23,0 -0.43,0.16 -0.43,0.36l0 5.09c0,0.15 0.2,0.35 0.43,0.35l3.88 0c0,0 9.36,0 9.36,-9.24l0 -11.36 -5.96 0zm0 0z"></path>  <path fill="#004D26" fill-rule="nonzero" d="M41.09 44.52l-12.57 -14.8 12.45 -15.35c0.27,-0.27 0.08,-0.59 -0.35,-0.59l-6.39 0c-0.08,0 -0.31,0.08 -0.35,0.12l-11.79 14.49 0 -14.26c0,-0.15 -0.15,-0.35 -0.39,-0.35l-5.17 0c-0.23,0 -0.43,0.2 -0.43,0.35l0 29.06c0,0 7.64,-8.65 8.42,-9.47l9.13 11.27c0.04,0.04 0.27,0.12 0.35,0.12l6.73 0c0.4,0 0.59,-0.27 0.36,-0.59zm0 0z"></path> </g></svg>