
<svg version="1.0" xmlns="http://www.w3.org/2000/svg"
 width="114" height="114" viewBox="0 0 114.000000 114.000000"
 preserveAspectRatio="xMidYMid meet">

<g transform="translate(0.000000,114.000000) scale(0.100000,-0.100000)"
fill="#000000" stroke="none">
<path fill="#000000" d="M755 873 c-75 -9 -75 -9 -75 -67 l0 -53 118 5 c143 6 162 -1 162 -58
0 -54 -25 -70 -112 -70 l-68 0 0 -55 0 -55 58 -1 c98 -2 116 -9 126 -51 7 -29
6 -42 -8 -64 l-18 -27 -129 5 -129 5 0 -53 c0 -50 2 -54 28 -61 15 -4 86 -8
157 -8 110 0 136 3 169 20 55 28 78 64 84 127 6 77 -16 123 -70 148 -42 18
-42 19 -15 25 15 4 39 21 53 38 24 28 26 37 22 105 -3 71 -5 76 -37 103 -19
15 -56 33 -83 38 -46 10 -168 12 -233 4z"/>
<path fill="#000000" d="M30 565 l0 -305 70 0 70 0 0 197 c0 113 4 193 9 188 5 -6 36 -94 71
-197 l62 -188 53 0 c40 0 54 4 59 17 4 9 -35 141 -90 305 l-96 288 -104 0
-104 0 0 -305z"/>
<path fill="#000000" d="M420 775 l-32 -95 28 -82 c14 -46 29 -87 32 -92 3 -6 18 26 33 70
l27 79 1 -197 1 -198 75 0 75 0 0 305 0 305 -104 0 -104 0 -32 -95z"/>
</g>
</svg>
