<?xml version="1.0" encoding="utf-8"?>
<svg xmlns="http://www.w3.org/2000/svg" xmlns:xlink="http://www.w3.org/1999/xlink" version="1.1" width="1080" height="1080" viewBox="0 0 1080 1080" xml:space="preserve">

<g transform="matrix(0.17 0 0 -0.17 708.78 144.69)"  >
<path style="stroke: none; stroke-width: 1; stroke-dasharray: none; stroke-linecap: butt; stroke-dashoffset: 0; stroke-linejoin: miter; stroke-miterlimit: 4; fill: rgb(255,255,255); fill-rule: nonzero; opacity: 1;" vector-effect="non-scaling-stroke"  transform=" translate(-5418.56, -6565.01)" d="M 5951 7345 C 5875 7324 5810 7281 5610 7120 C 5514 7043 5432 6980 5429 6980 C 5425 6980 5407 7058 5389 7153 L 5355 7325 L 5349 7255 C 5345 7217 5342 7123 5341 7048 L 5340 6911 L 5282 6863 C 5250 6837 5126 6734 5006 6635 C 4887 6536 4764 6439 4735 6418 C 4669 6374 4614 6362 4572 6384 L 4542 6399 L 4551 6359 C 4563 6305 4582 6271 4615 6240 C 4652 6206 4744 6205 4812 6238 L 4859 6261 L 4950 6206 C 5052 6145 5163 6099 5287 6067 L 5369 6045 L 5402 5910 L 5435 5775 L 5441 5885 C 5445 5946 5448 6004 5449 6015 C 5450 6034 5457 6035 5568 6036 C 5767 6038 5931 6098 6045 6214 C 6135 6304 6155 6363 6155 6540 C 6155 6706 6133 6798 6055 6955 L 6003 7061 L 6030 7080 C 6105 7133 6229 7157 6281 7129 C 6300 7119 6300 7120 6280 7161 C 6252 7215 6177 7295 6125 7325 C 6072 7357 6017 7363 5951 7345 z M 6000 6820 C 6067 6664 6081 6506 6039 6395 C 5998 6285 5880 6196 5720 6153 C 5622 6126 5432 6129 5315 6159 C 5231 6180 5030 6268 4985 6304 C 4968 6318 4967 6321 4980 6329 C 4988 6334 5202 6482 5455 6658 L 5915 6978 L 5944 6932 C 5960 6906 5985 6856 6000 6820 z" stroke-linecap="round" />
</g>
<g transform="matrix(0.17 0 0 -0.17 349.74 122)"  >
<path style="stroke: none; stroke-width: 1; stroke-dasharray: none; stroke-linecap: butt; stroke-dashoffset: 0; stroke-linejoin: miter; stroke-miterlimit: 4; fill: rgb(255,255,255); fill-rule: nonzero; opacity: 1;" vector-effect="non-scaling-stroke"  transform=" translate(-3401.13, -6695.65)" d="M 2755 7351 C 2681 7333 2593 7257 2545 7168 C 2520 7123 2520 7119 2538 7129 C 2549 7135 2585 7140 2617 7140 C 2663 7140 2690 7133 2745 7106 C 2850 7054 2846 7064 2796 6977 C 2743 6884 2696 6745 2679 6632 C 2645 6408 2744 6215 2941 6117 C 3134 6022 3368 6007 3607 6075 C 3704 6103 3878 6183 3944 6231 L 3987 6261 L 4035 6236 C 4143 6178 4239 6228 4268 6356 L 4277 6397 L 4240 6383 C 4190 6363 4139 6378 4062 6434 C 4029 6458 3868 6587 3704 6721 C 3016 7281 2970 7314 2867 7345 C 2812 7361 2801 7362 2755 7351 z M 3353 6677 C 3585 6515 3796 6368 3822 6350 C 3858 6324 3867 6313 3859 6304 C 3837 6277 3623 6180 3540 6159 C 3421 6128 3247 6122 3143 6145 C 2986 6180 2866 6259 2814 6362 C 2751 6486 2770 6679 2863 6865 C 2895 6930 2920 6970 2927 6970 C 2929 6970 3121 6838 3353 6677 z" stroke-linecap="round" />
</g>
<g transform="matrix(0.17 0 0 -0.17 524.35 425.51)"  >
<path style="stroke: none; stroke-width: 1; stroke-dasharray: none; stroke-linecap: butt; stroke-dashoffset: 0; stroke-linejoin: miter; stroke-miterlimit: 4; fill: rgb(255,255,255); fill-rule: nonzero; opacity: 1;" vector-effect="non-scaling-stroke"  transform=" translate(-4395.47, -4996.05)" d="M 4010 5409 C 3953 5389 3892 5349 3719 5217 C 3514 5061 3379 5023 3235 5078 C 3177 5100 3078 5173 3031 5227 C 2985 5281 2984 5278 3005 5161 C 3036 4983 3078 4862 3140 4770 C 3227 4642 3309 4590 3427 4590 C 3507 4590 3558 4606 3800 4708 C 4069 4821 4237 4856 4469 4847 C 4698 4838 4845 4799 5145 4667 C 5338 4582 5431 4555 5493 4565 C 5665 4594 5762 4773 5791 5112 C 5806 5280 5804 5284 5752 5211 C 5667 5090 5562 5033 5442 5043 C 5354 5050 5250 5103 5080 5230 C 5006 5285 4911 5347 4871 5368 C 4804 5401 4788 5405 4721 5405 C 4667 5405 4634 5400 4607 5386 C 4553 5360 4478 5289 4440 5230 C 4422 5203 4405 5180 4401 5180 C 4398 5180 4379 5208 4360 5241 C 4297 5352 4185 5432 4096 5429 C 4079 5429 4040 5420 4010 5409 z M 4247 5062 C 4214 4958 4200 4936 4200 4991 L 4200 5022 L 4162 4988 C 4141 4969 4068 4925 4001 4891 L 3877 4828 L 3882 4874 C 3885 4899 3886 4920 3883 4920 C 3881 4920 3858 4904 3832 4884 C 3755 4825 3558 4740 3499 4740 C 3483 4740 3483 4744 3497 4791 C 3505 4819 3510 4844 3507 4846 C 3505 4849 3474 4846 3439 4840 C 3365 4829 3210 4826 3210 4838 C 3211 4842 3224 4861 3240 4880 C 3273 4918 3277 4930 3256 4930 C 3240 4930 3185 4979 3193 4986 C 3196 4989 3209 4984 3223 4975 C 3237 4966 3271 4958 3299 4958 C 3327 4957 3350 4955 3350 4953 C 3350 4951 3343 4935 3334 4918 L 3318 4887 L 3382 4892 C 3421 4895 3474 4909 3520 4929 C 3561 4946 3597 4960 3601 4960 C 3604 4960 3605 4938 3602 4910 C 3596 4848 3602 4847 3697 4895 C 3777 4935 3841 4988 3910 5071 L 3958 5129 L 3967 5039 L 3975 4950 L 4059 4992 C 4119 5022 4161 5052 4209 5100 C 4245 5136 4276 5166 4277 5165 C 4278 5165 4265 5118 4247 5062 z M 4675 5045 C 4709 5020 4763 4989 4794 4975 L 4850 4950 L 4850 4994 C 4850 5018 4853 5058 4856 5083 L 4862 5128 L 4910 5071 C 4997 4966 5095 4896 5199 4865 C 5222 4858 5223 4858 5216 4913 L 5209 4968 L 5295 4933 C 5380 4899 5495 4871 5506 4882 C 5509 4886 5504 4899 5496 4913 L 5479 4937 L 5528 4944 C 5560 4948 5587 4959 5604 4975 C 5627 4997 5630 4997 5630 4980 C 5630 4960 5610 4936 5579 4920 C 5561 4910 5561 4909 5580 4877 C 5591 4860 5600 4839 5600 4833 C 5600 4812 5469 4819 5341 4846 L 5307 4853 L 5312 4806 L 5318 4759 L 5271 4766 C 5196 4777 5070 4827 5000 4875 L 4935 4919 L 4927 4889 C 4923 4873 4917 4860 4915 4860 C 4912 4860 4880 4871 4843 4885 C 4760 4917 4700 4951 4649 4997 L 4610 5032 L 4609 4994 C 4609 4958 4606 4961 4581 5035 C 4566 5079 4550 5129 4546 5145 C 4540 5174 4540 5174 4576 5132 C 4596 5109 4640 5069 4675 5045 z" stroke-linecap="round" />
</g>
<g transform="matrix(0.17 0 0 -0.17 540 719.48)"  >
<path style="stroke: none; stroke-width: 1; stroke-dasharray: none; stroke-linecap: butt; stroke-dashoffset: 0; stroke-linejoin: miter; stroke-miterlimit: 4; fill: rgb(255,255,255); fill-rule: nonzero; opacity: 1;" vector-effect="non-scaling-stroke"  transform=" translate(-4498.97, -3304.17)" d="M 6117 5287 C 6092 5253 6024 5171 5966 5105 C 5882 5009 5860 4977 5854 4945 C 5851 4923 5835 4865 5819 4815 C 5752 4606 5644 4497 5493 4483 C 5416 4476 5294 4506 5182 4560 C 5106 4596 5095 4599 5056 4590 C 5028 4584 5001 4584 4977 4591 C 4950 4598 4934 4598 4918 4589 C 4890 4574 4781 4574 4753 4589 C 4737 4597 4723 4596 4693 4583 C 4668 4573 4623 4567 4563 4566 C 4485 4565 4468 4568 4443 4586 L 4415 4607 L 4388 4587 C 4351 4559 4226 4557 4186 4584 C 4161 4600 4157 4600 4147 4586 C 4119 4550 4039 4540 3990 4565 C 3967 4577 3951 4578 3918 4570 C 3846 4554 3785 4557 3766 4579 C 3749 4598 3747 4598 3657 4560 C 3484 4488 3369 4483 3259 4542 C 3145 4602 3050 4731 2985 4913 C 2957 4990 2942 5015 2895 5064 C 2834 5128 2797 5179 2740 5277 L 2702 5341 L 2660 5223 C 2559 4937 2504 4674 2480 4360 C 2469 4209 2468 3998 2478 3930 L 2485 3885 L 2504 3930 C 2525 3984 2661 4232 2666 4227 C 2668 4226 2660 4150 2649 4059 C 2632 3924 2629 3861 2633 3705 C 2641 3442 2672 3258 2752 3001 C 2792 2875 2795 2869 2805 2896 C 2812 2912 2841 2991 2871 3072 C 2901 3153 2928 3220 2933 3220 C 2937 3220 2940 3144 2940 3050 C 2940 2592 3063 2223 3316 1925 C 3347 1889 3374 1861 3376 1863 C 3378 1865 3376 1891 3370 1921 C 3357 1993 3329 2272 3334 2277 C 3336 2279 3368 2224 3404 2155 C 3589 1804 3793 1554 4022 1399 C 4088 1354 4223 1288 4281 1272 C 4313 1264 4317 1265 4314 1279 C 4303 1329 4249 1702 4252 1706 C 4255 1708 4286 1666 4323 1612 C 4359 1559 4410 1492 4435 1463 C 4481 1411 4638 1285 4647 1294 C 4649 1296 4642 1329 4632 1367 C 4596 1490 4588 1543 4583 1695 C 4576 1896 4578 1902 4624 1810 C 4645 1769 4681 1708 4705 1675 C 4748 1614 4868 1494 4929 1451 L 4963 1426 L 4957 1451 C 4935 1532 4927 1693 4938 1807 C 4951 1929 4998 2127 5010 2113 C 5014 2109 5044 1990 5076 1850 C 5107 1710 5135 1593 5137 1591 C 5143 1583 5221 1664 5269 1730 C 5363 1857 5451 2036 5515 2228 C 5531 2273 5545 2309 5547 2306 C 5559 2294 5579 2133 5580 2051 L 5580 1957 L 5606 1981 C 5621 1994 5652 2034 5675 2070 C 5788 2244 5830 2462 5796 2700 C 5787 2763 5780 2819 5780 2825 C 5780 2844 5893 2645 5921 2575 C 5936 2537 5955 2474 5962 2436 L 5976 2367 L 5998 2397 C 6067 2493 6150 2700 6189 2870 C 6250 3135 6249 3561 6186 3798 C 6178 3826 6175 3850 6179 3850 C 6183 3850 6216 3820 6252 3783 C 6321 3711 6379 3628 6413 3551 L 6433 3505 L 6447 3550 C 6455 3575 6472 3649 6485 3716 C 6582 4197 6510 4688 6273 5161 C 6228 5253 6184 5332 6177 5339 C 6166 5347 6153 5336 6117 5287 z M 3751 4525 C 3801 4507 3893 4504 3932 4519 C 3951 4526 3971 4525 4009 4512 C 4052 4499 4070 4498 4115 4507 C 4156 4516 4184 4516 4224 4508 C 4263 4500 4297 4499 4346 4507 C 4387 4513 4422 4514 4432 4509 C 4466 4491 4565 4488 4633 4503 C 4699 4516 4702 4516 4716 4496 C 4723 4485 4730 4481 4730 4488 C 4730 4524 4883 4547 4910 4515 C 4922 4501 4925 4502 4945 4520 C 4962 4536 4980 4540 5036 4540 C 5101 4540 5108 4538 5135 4510 L 5163 4481 L 5114 4459 C 4939 4383 4626 4309 4362 4280 C 4226 4265 3971 4265 3890 4280 C 3773 4301 3711 4340 3689 4408 C 3676 4447 3687 4540 3704 4540 C 3706 4540 3727 4533 3751 4525 z M 5449 4261 C 5518 4123 5576 3888 5568 3777 L 5565 3730 L 5505 3771 C 5385 3853 5120 3967 5120 3936 C 5120 3929 5129 3888 5140 3844 C 5171 3725 5240 3425 5240 3411 C 5240 3403 5230 3406 5213 3420 C 5170 3453 5068 3520 5060 3520 C 5056 3520 5056 3501 5061 3478 C 5065 3454 5069 3399 5069 3355 L 5069 3275 L 5047 3313 C 5012 3374 4860 3604 4845 3619 C 4832 3632 4828 3629 4815 3596 C 4806 3576 4784 3505 4765 3438 C 4746 3371 4729 3315 4726 3313 C 4721 3308 4617 3627 4600 3699 L 4587 3753 L 4560 3687 C 4544 3651 4511 3590 4486 3552 C 4439 3481 4370 3342 4370 3318 C 4369 3270 4302 3472 4276 3601 C 4268 3642 4258 3702 4254 3733 C 4250 3764 4244 3790 4240 3790 C 4229 3790 4103 3641 4042 3555 C 4011 3510 3965 3437 3940 3392 C 3915 3347 3892 3310 3889 3310 C 3879 3310 3870 3486 3870 3702 L 3870 3911 L 3848 3905 C 3786 3886 3658 3818 3598 3771 C 3520 3712 3524 3706 3540 3855 C 3559 4019 3606 4210 3629 4210 C 3633 4210 3633 4186 3629 4158 C 3620 4097 3617 3910 3625 3910 C 3628 3910 3665 3927 3708 3949 C 3779 3984 3876 4020 3941 4034 L 3967 4040 L 3962 3865 C 3959 3746 3961 3690 3968 3690 C 3974 3690 3995 3712 4014 3739 C 4078 3825 4286 4010 4320 4010 C 4324 4010 4330 3979 4333 3942 C 4340 3859 4376 3699 4394 3675 C 4405 3659 4411 3664 4447 3721 C 4469 3756 4499 3810 4515 3842 C 4549 3912 4626 4002 4633 3980 C 4636 3972 4643 3929 4649 3885 C 4663 3787 4710 3609 4720 3615 C 4724 3618 4731 3637 4735 3657 C 4744 3710 4801 3880 4809 3880 C 4813 3880 4823 3850 4833 3813 C 4852 3739 4918 3609 4939 3602 C 4950 3598 4952 3606 4946 3638 C 4940 3679 4940 3679 4965 3670 C 4979 3665 5004 3653 5020 3645 L 5050 3629 L 5050 3659 C 5050 3714 5030 3835 5004 3930 C 4990 3982 4976 4035 4973 4047 L 4968 4068 L 5056 4049 C 5160 4026 5251 4000 5372 3959 C 5420 3943 5464 3930 5470 3930 C 5495 3930 5463 4129 5416 4269 C 5386 4355 5404 4351 5449 4261 z M 3010 4247 C 2998 4191 2974 4029 2965 3936 C 2959 3881 2961 3870 2972 3876 C 2979 3881 3017 3906 3055 3931 C 3094 3957 3148 3989 3175 4002 C 3235 4033 3371 4082 3377 4076 C 3379 4074 3368 4025 3351 3968 C 3300 3796 3279 3647 3278 3455 C 3278 3362 3283 3247 3289 3200 C 3309 3057 3304 3061 3369 3143 C 3443 3235 3578 3365 3657 3418 L 3717 3459 L 3718 3267 C 3718 3058 3736 2884 3775 2706 C 3798 2598 3864 2370 3879 2342 C 3884 2334 3892 2358 3899 2402 C 3942 2643 4073 3016 4183 3209 C 4212 3259 4207 3264 4230 3155 C 4247 3074 4278 2974 4327 2836 L 4374 2707 L 4402 2816 C 4429 2921 4523 3132 4568 3188 L 4586 3211 L 4609 3128 C 4639 3022 4713 2798 4738 2740 L 4757 2695 L 4764 2759 C 4773 2842 4811 2984 4849 3085 C 4894 3202 4894 3201 4930 3160 C 4985 3097 5126 2906 5165 2843 C 5186 2808 5206 2780 5210 2780 C 5221 2780 5230 2873 5230 2988 C 5230 3066 5233 3090 5243 3090 C 5268 3090 5375 3031 5419 2993 C 5451 2966 5461 2961 5457 2976 C 5440 3032 5360 3417 5360 3443 C 5360 3463 5649 3290 5777 3194 L 5860 3131 L 5860 3173 C 5860 3247 5841 3390 5804 3593 C 5784 3702 5770 3793 5772 3796 C 5780 3803 5868 3625 5903 3530 C 5964 3366 5983 3251 5983 3050 C 5983 2954 5979 2865 5974 2853 C 5965 2832 5959 2836 5865 2921 C 5688 3083 5482 3239 5494 3204 C 5497 3194 5531 3088 5569 2970 C 5629 2781 5648 2705 5665 2585 L 5669 2555 L 5642 2590 C 5584 2664 5502 2745 5435 2792 L 5365 2841 L 5358 2753 C 5341 2551 5263 2166 5217 2060 L 5202 2025 L 5201 2085 C 5199 2223 5149 2462 5091 2611 C 5047 2724 4971 2872 4960 2865 C 4954 2862 4950 2844 4950 2827 C 4950 2778 4914 2639 4865 2495 C 4816 2350 4800 2270 4800 2163 C 4800 2123 4796 2090 4791 2090 C 4776 2090 4663 2328 4632 2425 C 4616 2475 4595 2560 4586 2615 C 4552 2804 4560 2802 4511 2640 C 4487 2560 4453 2438 4435 2367 C 4417 2297 4400 2237 4397 2233 C 4387 2224 4308 2399 4267 2520 C 4247 2578 4223 2664 4213 2713 C 4203 2761 4192 2800 4189 2800 C 4179 2800 4104 2562 4076 2440 C 4044 2301 4012 2098 4004 1978 C 4000 1924 3994 1880 3990 1880 C 3979 1880 3831 2067 3763 2168 C 3606 2400 3544 2595 3533 2883 C 3527 3039 3527 3040 3507 3023 C 3471 2990 3352 2800 3319 2722 C 3301 2680 3274 2598 3259 2540 C 3244 2482 3229 2442 3226 2450 C 3205 2508 3158 2693 3141 2785 C 3110 2950 3100 3058 3100 3235 C 3100 3425 3111 3540 3145 3708 C 3159 3777 3169 3835 3166 3837 C 3163 3840 3119 3800 3068 3749 C 2980 3660 2934 3598 2862 3470 L 2830 3415 L 2830 3508 C 2830 3737 2867 3965 2929 4124 C 2967 4218 3010 4304 3016 4297 C 3019 4295 3016 4272 3010 4247 z" stroke-linecap="round" />
</g>
</svg>