<?xml version="1.0" standalone="no"?>
<!DOCTYPE svg PUBLIC "-//W3C//DTD SVG 20010904//EN"
 "http://www.w3.org/TR/2001/REC-SVG-20010904/DTD/svg10.dtd">
<svg version="1.0" xmlns="http://www.w3.org/2000/svg"
 width="1875.000000pt" height="1875.000000pt" viewBox="0 0 1875.000000 1875.000000"
 preserveAspectRatio="xMidYMid meet">
<metadata>
Created by potrace 1.14, written by Peter Selinger 2001-2017
</metadata>
<g transform="translate(0.000000,1875.000000) scale(0.100000,-0.100000)"
fill="#000000" stroke="none">
<path style="fill:#ffffff;fill-rule:evenodd;stroke:none" d="M8930 18739 c-581 -27 -1206 -118 -1785 -259 -2006 -491 -3790 -1630
-5090 -3250 -1073 -1337 -1761 -2963 -1979 -4670 -44 -346 -64 -628 -72 -1015
-47 -2230 724 -4430 2160 -6160 355 -427 845 -913 1276 -1266 1872 -1531 4267
-2280 6680 -2089 1921 153 3757 900 5245 2134 412 342 879 809 1221 1221 774
933 1366 2018 1727 3165 581 1844 581 3805 1 5646 -363 1154 -952 2233 -1728
3169 -313 377 -734 805 -1101 1120 -1817 1560 -4162 2366 -6555 2254z m1090
-1743 c1473 -136 2800 -644 3960 -1517 1638 -1233 2721 -3097 2979 -5129 71
-552 80 -1192 25 -1730 -127 -1255 -546 -2427 -1242 -3478 -1162 -1754 -3011
-2954 -5092 -3306 -466 -79 -747 -101 -1280 -101 -453 0 -607 9 -970 56 -2461
316 -4629 1818 -5783 4007 -495 939 -770 1888 -869 3002 -17 195 -17 955 0
1150 68 766 211 1417 453 2073 1033 2789 3578 4724 6539 4971 279 24 276 24
705 21 267 -2 458 -8 575 -19z"/>
<path style="fill:#ffffff;fill-rule:evenodd;stroke:none" d="M7410 15473 l0 -818 998 -474 c548 -261 1006 -476 1017 -478 11 -1
466 212 1010 475 l990 478 3 818 c2 757 1 818 -14 812 -9 -4 -460 -247 -1001
-542 l-983 -535 -1006 540 c-553 298 -1008 541 -1010 541 -2 0 -4 -368 -4
-817z"/>
<path style="fill:#ffffff;fill-rule:evenodd;stroke:none" d="M9100 13473 c-799 -59 -1470 -283 -2095 -699 -559 -372 -1010 -904
-1300 -1533 -225 -487 -352 -995 -396 -1591 -17 -233 -6 -779 20 -1000 93
-782 339 -1449 738 -2004 182 -252 453 -537 693 -729 615 -492 1305 -762 2195
-859 162 -18 836 -18 1005 0 749 78 1349 282 1900 647 220 146 349 253 556
459 206 207 313 336 459 556 202 305 341 594 458 956 42 128 117 406 117 433
0 8 -338 11 -1247 11 l-1248 0 -35 -68 c-19 -37 -65 -112 -101 -167 -246 -367
-590 -600 -1023 -691 -149 -31 -444 -44 -602 -25 -389 46 -690 183 -952 436
-172 165 -302 360 -402 602 -208 503 -247 1216 -100 1798 63 249 165 477 298
665 77 110 287 325 382 392 222 155 461 247 744 284 151 20 444 14 586 -11
499 -90 908 -387 1152 -837 l53 -97 1248 -1 c865 0 1247 3 1247 11 0 24 -75
304 -112 419 -239 738 -639 1324 -1218 1785 -221 177 -430 310 -677 434 -431
215 -882 343 -1434 407 -129 15 -776 27 -909 17z"/>
</g>
</svg>
