<svg id="Layer_2" data-name="Layer 2" xmlns="http://www.w3.org/2000/svg" xmlns:xlink="http://www.w3.org/1999/xlink" viewBox="0 0 162.44 162.4"><defs><linearGradient id="linear-gradient" x1="0" y1="162.41" x2="1" y2="162.41" gradientTransform="matrix(0 -257.22 -257.22 0 41887.85 170.76)" gradientUnits="userSpaceOnUse"><stop offset="0" stop-color="#660aff"/><stop offset="1" stop-color="#f30"/></linearGradient><linearGradient id="linear-gradient-2" y1="162.41" x2="1" y2="162.41" gradientTransform="matrix(0 -257.22 -257.22 0 41855.29 193.72)" xlink:href="#linear-gradient"/><linearGradient id="linear-gradient-3" y1="162.39" y2="162.39" gradientTransform="matrix(0 -257.22 -257.22 0 41818.58 207.16)" xlink:href="#linear-gradient"/><linearGradient id="linear-gradient-4" y1="162.4" y2="162.4" gradientTransform="matrix(0 -257.22 -257.22 0 41818.95 228.66)" xlink:href="#linear-gradient"/><linearGradient id="linear-gradient-5" y1="162.39" y2="162.39" gradientTransform="matrix(0 -257.22 -257.22 0 41851.67 205.07)" xlink:href="#linear-gradient"/><linearGradient id="linear-gradient-6" y1="162.4" x2="1" y2="162.4" gradientTransform="matrix(0 -257.22 -257.22 0 41888.59 190.98)" xlink:href="#linear-gradient"/><linearGradient id="linear-gradient-7" y1="162.41" y2="162.41" gradientTransform="matrix(0 -257.22 -257.22 0 41793.54 228.82)" xlink:href="#linear-gradient"/><linearGradient id="linear-gradient-8" y1="162.39" y2="162.39" gradientTransform="matrix(0 -257.22 -257.22 0 41818.76 216.83)" xlink:href="#linear-gradient"/><linearGradient id="linear-gradient-9" y1="162.39" y2="162.39" gradientTransform="matrix(0 -257.22 -257.22 0 41788.3 239.71)" xlink:href="#linear-gradient"/><linearGradient id="linear-gradient-10" y1="162.39" y2="162.39" gradientTransform="matrix(0 -257.22 -257.22 0 41913.5 169.92)" xlink:href="#linear-gradient"/><linearGradient id="linear-gradient-11" y1="162.41" y2="162.41" gradientTransform="matrix(0 -257.22 -257.22 0 41888.29 181.92)" xlink:href="#linear-gradient"/><linearGradient id="linear-gradient-12" y1="162.41" y2="162.41" gradientTransform="matrix(0 -257.22 -257.22 0 41918.69 159.07)" xlink:href="#linear-gradient"/><clipPath id="clippath"><path class="cls-2" d="M105.8 18.52 118.41 5.8c2.94 3.55 4.54 7.97 4.56 12.64a19.9 19.9 0 0 1-4.45 12.68L105.8 18.51ZM118.45 0l-18.38 18.55 18.54 18.38 1.43-1.44c4.53-4.57 7.01-10.63 6.98-17.06-.03-6.43-2.56-12.47-7.13-17L118.45 0Z"/></clipPath><clipPath id="clippath-1"><path class="cls-2" d="m93.62 30.82 12.79 12.68-18.76 18.91a9.16 9.16 0 0 1-6.54 2.74c-2.48.01-4.82-.94-6.58-2.69L55.62 43.72 68.3 30.93l12.71 12.6 12.61-12.72Zm-12.63 6.99-12.71-12.6-18.39 18.55 21.79 21.6c2.53 2.51 5.89 3.88 9.45 3.86 3.57-.02 6.91-1.42 9.41-3.95l21.61-21.79L93.6 25.1 81 37.82Z"/></clipPath><clipPath id="clippath-2"><path class="cls-2" d="M38.85 18.84c-.02-4.67 1.55-9.11 4.45-12.68l12.72 12.61-12.61 12.72c-2.94-3.55-4.54-7.97-4.56-12.64m2.93-17.06c-4.53 4.57-7.01 10.63-6.98 17.06.03 6.43 2.56 12.47 7.13 17l1.44 1.43 18.38-18.55L43.21.35l-1.43 1.44Z"/></clipPath><clipPath id="clippath-3"><path class="cls-2" d="m43.88 131.27 12.72 12.61-12.61 12.72c-6.03-7.32-6.08-17.95-.11-25.33m-1.53-4.36c-9.35 9.43-9.28 24.72.15 34.07l1.44 1.43 18.38-18.55-18.55-18.38-1.43 1.44Z"/></clipPath><clipPath id="clippath-4"><path class="cls-2" d="m55.95 118.94 18.74-18.91a9.25 9.25 0 0 1 6.56-2.75c2.49-.01 4.82.94 6.57 2.69l18.92 18.75-12.68 12.79-12.72-12.6-12.6 12.72-12.79-12.68Zm25.28-25.71c-3.56.02-6.91 1.42-9.42 3.95l-21.6 21.79 18.55 18.38 12.6-12.72 12.72 12.6 18.38-18.55-21.79-21.59c-2.51-2.5-5.84-3.87-9.39-3.87h-.06"/></clipPath><clipPath id="clippath-5"><path class="cls-2" d="m106.34 143.67 12.61-12.72c6.03 7.32 6.08 17.96.11 25.33l-12.72-12.61Zm-5.73.03 18.55 18.38 1.43-1.44c9.35-9.43 9.28-24.71-.15-34.07l-1.44-1.43-18.38 18.55Z"/></clipPath><clipPath id="clippath-6"><path class="cls-2" d="M5.8 44c7.31-6.03 17.96-6.08 25.33-.11L18.52 56.61 5.8 44Zm-4.37-1.49L0 43.95l18.55 18.38 18.38-18.55-1.44-1.43c-4.69-4.65-10.82-6.97-16.96-6.97-6.2 0-12.41 2.38-17.11 7.12"/></clipPath><clipPath id="clippath-7"><path class="cls-2" d="m30.94 94.12 12.6-12.72-12.71-12.6 12.68-12.79 25.51 25.28-25.28 25.51-12.79-12.68ZM25.1 68.83l12.71 12.6-12.6 12.71 18.55 18.39 30.99-31.26-31.26-30.99-18.38 18.55Z"/></clipPath><clipPath id="clippath-8"><path class="cls-2" d="m6.11 119.16 12.61-12.72 12.72 12.61c-3.56 2.94-7.97 4.54-12.65 4.56h-.09c-4.64 0-9.03-1.56-12.59-4.45m-5.8.1 1.44 1.43c4.72 4.67 10.9 7 17.06 6.97 6.17-.03 12.33-2.4 17-7.12l1.43-1.44-18.55-18.38L.31 119.26Z"/></clipPath><clipPath id="clippath-9"><path class="cls-2" d="m131.31 118.55 12.61-12.72 12.72 12.61c-3.55 2.94-7.97 4.54-12.64 4.56h-.09c-4.64 0-9.03-1.57-12.59-4.45m-5.81.1 1.44 1.43c4.57 4.53 10.63 7.01 17.06 6.98 6.43-.03 12.47-2.56 17-7.13l1.43-1.44-18.54-18.38-18.38 18.55Z"/></clipPath><clipPath id="clippath-10"><path class="cls-2" d="m93.43 81.15 25.28-25.51 12.79 12.68-12.6 12.72 12.72 12.6-12.68 12.79-25.51-25.28Zm-5.73.03 31.26 30.99 18.38-18.55-12.71-12.6 12.6-12.72-18.55-18.38-30.99 31.26Z"/></clipPath><clipPath id="clippath-11"><path class="cls-2" d="M130.95 43.45c7.31-6.03 17.96-6.08 25.32-.11l-12.61 12.72-12.72-12.61Zm-4.38-1.49-1.43 1.44 18.55 18.38 18.38-18.55-1.44-1.42c-4.69-4.65-10.82-6.97-16.96-6.97-6.21 0-12.41 2.38-17.11 7.12"/></clipPath><style>.cls-2{fill:none;stroke-width:0}</style></defs><g id="Layer_1-2" data-name="Layer 1"><g style="clip-path:url(#clippath)"><path transform="rotate(-33.82 113.56 18.462)" style="fill:url(#linear-gradient);stroke-width:0" d="M92.08-4.38h42.97v45.7H92.08z"/></g><g style="clip-path:url(#clippath-1)"><path transform="rotate(-33.82 81.012 47.16)" style="fill:url(#linear-gradient-2);stroke-width:0" d="M42.88 11.5h76.28v71.31H42.88z"/></g><g style="clip-path:url(#clippath-2)"><path transform="rotate(-33.82 48.267 18.824)" style="fill:url(#linear-gradient-3);stroke-width:0" d="M26.78-4.03h42.97v45.7H26.78z"/></g><g style="clip-path:url(#clippath-3)"><path transform="rotate(-33.82 47.672 143.943)" style="fill:url(#linear-gradient-4);stroke-width:0" d="M25.21 120.44h44.91v47H25.21z"/></g><g style="clip-path:url(#clippath-4)"><path transform="rotate(-33.82 81.341 115.281)" style="fill:url(#linear-gradient-5);stroke-width:0" d="M43.21 79.63h76.27v71.3H43.21z"/></g><g style="clip-path:url(#clippath-5)"><path transform="rotate(-33.82 115.272 143.617)" style="fill:url(#linear-gradient-6);stroke-width:0" d="M92.81 120.12h44.92v47H92.81z"/></g><g style="clip-path:url(#clippath-6)"><path transform="rotate(-33.82 18.473 48.862)" style="fill:url(#linear-gradient-7);stroke-width:0" d="M-4.37 27.4h45.68v42.94H-4.37z"/></g><g style="clip-path:url(#clippath-7)"><path transform="rotate(-33.82 49.922 81.402)" style="fill:url(#linear-gradient-8);stroke-width:0" d="M11.97 41.73h75.89v79.35H11.97z"/></g><g style="clip-path:url(#clippath-8)"><path transform="rotate(-33.82 18.767 114.206)" style="fill:url(#linear-gradient-9);stroke-width:0" d="M-4.07 92.72h45.69v42.96H-4.07z"/></g><g style="clip-path:url(#clippath-9)"><path transform="rotate(-33.82 143.984 113.592)" style="fill:url(#linear-gradient-10);stroke-width:0" d="M121.13 92.11h45.7v42.97h-45.7z"/></g><g style="clip-path:url(#clippath-10)"><path transform="rotate(-33.82 112.518 81.046)" style="fill:url(#linear-gradient-11);stroke-width:0" d="M74.58 41.37h75.89v79.35H74.58z"/></g><g style="clip-path:url(#clippath-11)"><path transform="rotate(-33.82 143.616 48.315)" style="fill:url(#linear-gradient-12);stroke-width:0" d="M120.77 26.85h45.68v42.94h-45.68z"/></g></g></svg>