<?xml version="1.0" encoding="utf-8"?>
<svg version="1.1" id="Layer_1" xmlns="http://www.w3.org/2000/svg" xmlns:xlink="http://www.w3.org/1999/xlink" x="0px" y="0px"
	 viewBox="0 0 90 79" style="enable-background:new 0 0 90 79" xml:space="preserve" width="584"
   height="500">
<g>
	<g>
		<path style="fill:#ffffff;fill-rule:evenodd;stroke:none" d="M10,36.7c-6.1-2-8.9-5.9-10-11.9h13.4c0.9,3.3,4.5,4.3,9.4,4.3c4.6,0,6.5-0.8,6.5-2.7c0-0.8-0.3-1.3-0.9-1.7
			c-1.3-0.8-4.5-1.1-11.1-1.5c-10.9-0.8-16-3.5-16-10.9C1.3,5,8,0,20.1,0c12.1,0,19.1,3.5,21.2,12.8H28.5c-0.8-3-3.8-3.9-8.7-3.9
			s-6.2,1.2-6.2,2.8c0,0.9,0.4,1.5,1.8,1.9c1.5,0.4,4.2,0.8,8.8,1c4,0.2,7.1,0.7,9.7,1.5c5.2,1.6,7.6,4.4,7.6,9.6
			c0,2.6-0.7,4.7-2.1,6.6c-2.7,3.8-8.4,6-17.4,6C17.1,38.1,13.1,37.6,10,36.7L10,36.7z"/>
		<path style="fill:#ffffff;fill-rule:evenodd;stroke:none" d="M54.8,36.1c-6.5-2.7-10.2-8.1-10.2-16.8v-0.1c0-4,0.9-7.4,2.8-10.3c3.7-5.7,10.4-8.8,19.1-8.8c4.2,0,8,0.8,11.2,2.2
			c6.5,3,10.4,8.7,10.4,16.8v0.2c0,4.2-0.9,7.7-2.7,10.5c-3.6,5.6-10.3,8.2-19,8.2C61.9,38.1,58.1,37.4,54.8,36.1L54.8,36.1z
			 M75.6,19.3c0-5.9-3.5-8.5-9.2-8.5c-5.7,0-9.2,2.7-9.2,8.5v0.1c0,5.5,3.4,8.1,9.1,8.1S75.6,25.1,75.6,19.3L75.6,19.3z"/>
		<path style="fill:#ffffff;fill-rule:evenodd;stroke:none" d="M14.4,79H2.8V43h40.8v10.4H14.4v5.6h28.7v9.8H14.4V79L14.4,79z"/>
		<path style="fill:#ffffff;fill-rule:evenodd;stroke:none" d="M58.5,72.8L55.9,79H43.2L59.5,43h13.8L89.6,79H77l-2.6-6.2H58.5L58.5,72.8z M62,64.3h8.8l-4.4-10.5L62,64.3z"/>
	</g>
</g>
</svg>
