<?xml version="1.0" encoding="UTF-8" standalone="no" ?>
<!DOCTYPE svg PUBLIC "-//W3C//DTD SVG 1.1//EN" "http://www.w3.org/Graphics/SVG/1.1/DTD/svg11.dtd">
<svg xmlns="http://www.w3.org/2000/svg" xmlns:xlink="http://www.w3.org/1999/xlink" version="1.1" width="1080" height="1080" viewBox="0 0 1080 1080" xml:space="preserve">
<desc>Created with Fabric.js 5.2.4</desc>
<defs>
</defs>
<g transform="matrix(1 0 0 1 540 540)" id="88775163-3cf6-4b87-9c0f-9c1a095997d0"  >
</g>
<g transform="matrix(1 0 0 1 540 540)" id="4dcecbba-bc0f-40d6-aeec-5f184c57ac17"  >
<rect style="stroke: none; stroke-width: 1; stroke-dasharray: none; stroke-linecap: butt; stroke-dashoffset: 0; stroke-linejoin: miter; stroke-miterlimit: 4; fill: rgb(223, 37, 33); fill-rule: nonzero; opacity: 1; visibility: hidden;" vector-effect="non-scaling-stroke"  x="-540" y="-540" rx="0" ry="0" width="1080" height="1080" />
</g>
<g transform="matrix(0.1 0 0 -0.1 100.96 1667.58)"  >
<rect style="stroke: none; stroke-width: 1; stroke-dasharray: none; stroke-linecap: butt; stroke-dashoffset: 0; stroke-linejoin: miter; stroke-miterlimit: 4; fill: rgb(223, 37, 33); fill-rule: nonzero; opacity: 1; visibility: hidden;" vector-effect="non-scaling-stroke"  x="-540" y="-540" rx="0" ry="0" width="1080" height="1080" />
</g>
<g transform="matrix(21.53 0 0 21.53 539.96 534.64)"  >
<path style="stroke: none; stroke-width: 1; stroke-dasharray: none; stroke-linecap: butt; stroke-dashoffset: 0; stroke-linejoin: miter; stroke-miterlimit: 4; fill: rgb(223, 37, 33); fill-rule: nonzero; opacity: 1;" vector-effect="non-scaling-stroke"  transform=" translate(-24.38, -24.32)" d="M 48.1313 44.396 C 49.1285 45.4154 49.1617 47.0268 48.1313 48.0134 C 47.1008 49 45.4721 49 44.4749 48.0134 L 35.9987 39.6275 C 27.7553 45.9087 16.221 45.7772 8.14375 39.2658 C -1.46256 31.5376 -2.92511 17.5611 4.91949 8.05703 C 12.7641 -1.44699 26.891 -2.86109 36.4973 4.8671 C 46.1036 12.5953 47.533 26.5718 39.7216 36.0758 L 48.1313 44.396 Z M 22.4369 39.6604 C 32.1429 39.6604 40.0208 31.8993 40.0208 22.2966 C 40.054 12.6939 32.1762 4.89999 22.4701 4.89999 C 12.7641 4.8671 4.88625 12.6611 4.88625 22.2637 C 4.88625 31.8664 12.7641 39.6275 22.4369 39.6604 Z" stroke-linecap="round" />
</g>
<g transform="matrix(21.53 0 0 21.53 492.38 449.06)"  >
<path style="stroke: none; stroke-width: 1; stroke-dasharray: none; stroke-linecap: butt; stroke-dashoffset: 0; stroke-linejoin: miter; stroke-miterlimit: 4; fill: rgb(223, 37, 33); fill-rule: nonzero; opacity: 1;" vector-effect="non-scaling-stroke"  transform=" translate(-22.17, -20.24)" d="M 22.171 10.9839 C 23.6003 10.9839 24.7637 12.1349 24.7637 13.549 L 24.7637 26.9336 C 24.7637 28.3476 23.6003 29.4986 22.171 29.4986 C 20.7416 29.4986 19.5782 28.3476 19.5782 26.9336 L 19.5782 13.5161 C 19.6115 12.102 20.7416 10.9839 22.171 10.9839 Z" stroke-linecap="round" />
</g>
<g transform="matrix(21.53 0 0 21.53 312.59 537.88)"  >
<path style="stroke: none; stroke-width: 1; stroke-dasharray: none; stroke-linecap: butt; stroke-dashoffset: 0; stroke-linejoin: miter; stroke-miterlimit: 4; fill: rgb(223, 37, 33); fill-rule: nonzero; opacity: 1;" vector-effect="non-scaling-stroke"  transform=" translate(-13.83, -24.37)" d="M 13.7945 19.304 C 15.2238 19.304 16.3872 20.455 16.3872 21.8362 L 16.3872 26.9007 C 16.3872 28.3148 15.2238 29.4329 13.8277 29.4329 C 12.3984 29.4329 11.2683 28.2819 11.2683 26.9007 L 11.2683 21.8362 C 11.235 20.4221 12.3984 19.304 13.7945 19.304 Z" stroke-linecap="round" />
</g>
<g transform="matrix(21.53 0 0 21.53 673.4 506)"  >
<path style="stroke: none; stroke-width: 1; stroke-dasharray: none; stroke-linecap: butt; stroke-dashoffset: 0; stroke-linejoin: miter; stroke-miterlimit: 4; fill: rgb(223, 37, 33); fill-rule: nonzero; opacity: 1;" vector-effect="non-scaling-stroke"  transform=" translate(-30.58, -22.89)" d="M 30.5474 16.3443 C 31.9767 16.3443 33.1401 17.4953 33.1401 18.8765 L 33.1401 26.9007 C 33.1401 28.3148 31.9767 29.4329 30.5806 29.4329 C 29.1513 29.4329 28.0211 28.2819 28.0211 26.9007 L 28.0211 18.8765 C 27.9547 17.4624 29.1181 16.3443 30.5474 16.3443 Z" stroke-linecap="round" />
</g>
</svg>